# xmcd
#
# Track frame offsets:
#	150
#	17991
#	35984
#	58000
#	74605
#	92092
#	114043
#	135949
#	155381
#	173076
#	189007
#	208836
#	229526
#	248649
#	265372
#	291574
#	312263
#	327753
#
# Disc length: 4712 seconds
#
# Revision: 2
# Processed by: cddbd v1.5.2PL0 Copyright (c) Steve Scherf et al.
# Submitted via: audiograbber 1.83.01
#
DISCID=fd126612
DTITLE=Vicky Leandros - Vickys Welt CD2
DYEAR=2006
DGENRE=Deutsches
TTITLE0=Seperate Tables-feat.Chris De Burgh
TTITLE1=Wo du auch bist, machs gut
TTITLE2=und ich flieg zu dir
TTITLE3=Tief in mir
TTITLE4=Mut zum Leben
TTITLE5=Alle Frauen dieser Erde
TTITLE6=Sommernacht am Meer
TTITLE7=Nur ein Tag in Griechenland
TTITLE8=Der Teufel erfriert
TTITLE9=Pass auf dich auf
TTITLE10=Grieschiches Medley
TTITLE11=Alexander
TTITLE12=Nur ein Traum
TTITLE13=Es geht mir wieder gut
TTITLE14=Break The Silence
TTITLE15=Seperate Tables-feat.Chris De Burgh
TTITLE16=Bonus-Günther gestehe(Karaoke Version)
TTITLE17=Bonus-Weil mein Herz dich nie mehr vergisst(Karaoke Version)
EXTD=
EXTT0=
EXTT1=
EXTT2=
EXTT3=
EXTT4=
EXTT5=
EXTT6=
EXTT7=
EXTT8=
EXTT9=
EXTT10=
EXTT11=
EXTT12=
EXTT13=
EXTT14=
EXTT15=
EXTT16=
EXTT17=
PLAYORDER=
